<svg width="48" height="48" viewBox="0 0 48 48" fill="none" xmlns="http://www.w3.org/2000/svg">
<rect x="0.5" y="0.5" width="47" height="47" rx="23.5" stroke="#262B0D"/>
<g clip-path="url(#clip0_642_652)">
<path d="M18 33C19.1046 33 20 32.1046 20 31C20 29.8954 19.1046 29 18 29C16.8954 29 16 29.8954 16 31C16 32.1046 16.8954 33 18 33Z" stroke="#262B0D" stroke-width="1.5" stroke-linecap="round" stroke-linejoin="round"/>
<path d="M29 33C30.1046 33 31 32.1046 31 31C31 29.8954 30.1046 29 29 29C27.8954 29 27 29.8954 27 31C27 32.1046 27.8954 33 29 33Z" stroke="#262B0D" stroke-width="1.5" stroke-linecap="round" stroke-linejoin="round"/>
<path d="M29 29H18V15H16" stroke="#262B0D" stroke-width="1.5" stroke-linecap="round" stroke-linejoin="round"/>
<path d="M18 17L32 18L31 25H18" stroke="#262B0D" stroke-width="1.5" stroke-linecap="round" stroke-linejoin="round"/>
</g>
<defs>
<clipPath id="clip0_642_652">
<rect width="24" height="24" fill="white" transform="translate(12 12)"/>
</clipPath>
</defs>
</svg>
