<svg width="48" height="48" viewBox="0 0 48 48" fill="none" xmlns="http://www.w3.org/2000/svg">
<rect x="0.5" y="0.5" width="47" height="47" rx="23.5" stroke="#262B0D"/>
<g clip-path="url(#clip0_642_660)">
<path d="M31.4993 25.572L23.9993 33L16.4993 25.572C16.0046 25.0906 15.615 24.512 15.3549 23.8726C15.0948 23.2333 14.9699 22.547 14.9881 21.8569C15.0062 21.1669 15.1671 20.4881 15.4605 19.8633C15.7539 19.2385 16.1735 18.6813 16.6928 18.2266C17.2122 17.7719 17.82 17.4297 18.4781 17.2215C19.1362 17.0133 19.8303 16.9436 20.5167 17.0168C21.2031 17.09 21.8668 17.3046 22.4662 17.6469C23.0656 17.9893 23.5876 18.452 23.9993 19.006C24.4129 18.456 24.9355 17.9973 25.5344 17.6586C26.1334 17.3199 26.7958 17.1085 27.4803 17.0375C28.1647 16.9666 28.8564 17.0377 29.5121 17.2464C30.1678 17.4551 30.7734 17.7969 31.2909 18.2504C31.8084 18.7039 32.2268 19.2593 32.5197 19.8819C32.8127 20.5045 32.9741 21.1809 32.9936 21.8687C33.0132 22.5565 32.8906 23.241 32.6335 23.8793C32.3763 24.5175 31.9902 25.0958 31.4993 25.578" stroke="#262B0D" stroke-width="1.5" stroke-linecap="round" stroke-linejoin="round"/>
</g>
<defs>
<clipPath id="clip0_642_660">
<rect width="24" height="24" fill="white" transform="translate(12 12)"/>
</clipPath>
</defs>
</svg>
